<svg width="512" height="512" viewBox="0 0 512 512" fill="none" xmlns="http://www.w3.org/2000/svg">
  <rect x="40" y="40" width="432" height="432" rx="112" fill="#F4C24D"/>
  <rect x="40" y="40" width="432" height="432" rx="112" stroke="#1F1F1F" stroke-opacity="0.14" stroke-width="4"/>
  <path d="M332.74 134H190.4L178.65 215.53C193.43 206.24 211.4 201.6 232.56 201.6C270.47 201.6 300.09 212.31 321.43 233.74C342.86 255.08 353.58 283.81 353.58 319.92C353.58 355.49 342.11 384.26 319.18 406.23C296.35 428.2 264.92 439.18 224.9 439.18C187.8 439.18 157.38 429.43 133.64 409.94C109.99 390.45 96.82 364.07 94.12 330.8H153.01C156.98 349.12 164.91 363.03 176.79 372.55C188.68 381.97 204.11 386.68 223.09 386.68C243.35 386.68 259.2 380.99 270.63 369.61C282.06 358.14 287.77 342.79 287.77 323.54C287.77 304.2 281.56 288.94 269.13 277.75C256.79 266.55 240.16 260.96 219.24 260.96C201.91 260.96 186.6 264.44 173.31 271.38L145.73 256.49L169.61 82.27H332.74V134Z" fill="#171717"/>
  <path d="M152 364H332" stroke="#FFF6DE" stroke-width="10" stroke-linecap="round"/>
</svg>
