<svg width="512" height="512" viewBox="0 0 512 512" fill="none" xmlns="http://www.w3.org/2000/svg">
  <defs>
    <linearGradient id="bg" x1="64" y1="44" x2="452" y2="468" gradientUnits="userSpaceOnUse">
      <stop stop-color="#0B1220"/>
      <stop offset="1" stop-color="#17253E"/>
    </linearGradient>
    <linearGradient id="gold" x1="127" y1="92" x2="354" y2="392" gradientUnits="userSpaceOnUse">
      <stop stop-color="#FFF3C2"/>
      <stop offset="0.45" stop-color="#F7C75D"/>
      <stop offset="1" stop-color="#EA580C"/>
    </linearGradient>
  </defs>

  <rect x="36" y="36" width="440" height="440" rx="104" fill="url(#bg)"/>
  <rect x="36" y="36" width="440" height="440" rx="104" stroke="#F8D66D" stroke-opacity="0.22" stroke-width="4"/>

  <path d="M134 118H362V163H205L188 234C205 225 225 221 248 221C292 221 327 232 353 256C378 280 391 312 391 352C391 390 378 421 350 445C322 468 283 480 234 480C188 480 150 468 120 444C90 419 72 386 68 345H134C139 364 149 379 164 390C179 401 198 406 221 406C244 406 262 400 276 388C291 375 298 357 298 334C298 312 290 295 275 281C260 267 239 260 211 260C189 260 170 265 155 275H113L147 118H134Z" fill="url(#gold)" transform="translate(0 -24) scale(0.92)"/>
  <path d="M133 316C178 256 229 214 286 191C311 181 337 173 366 169" stroke="#F8D66D" stroke-opacity="0.3" stroke-width="14" stroke-linecap="round"/>
  <path d="M160 359C199 314 246 279 301 258C319 251 339 245 361 241" stroke="#F59E0B" stroke-opacity="0.55" stroke-width="14" stroke-linecap="round"/>
  <circle cx="372" cy="132" r="14" fill="#F8D66D"/>
</svg>
